<svg width="1600" height="900" viewBox="0 0 1600 900" fill="none" xmlns="http://www.w3.org/2000/svg">
  <rect width="1600" height="900" fill="#F4EBDD"/>
  <rect x="82" y="74" width="1436" height="752" rx="34" fill="url(#paint0_linear)"/>
  <rect x="204" y="205" width="354" height="120" rx="16" fill="#FFF8F0" fill-opacity="0.62"/>
  <text x="234" y="254" fill="#32261D" font-size="50" font-family="'Times New Roman', serif">Tag Index</text>
  <text x="234" y="299" fill="#6C5647" font-size="23" font-family="'Times New Roman', serif">multiple entries into the same text</text>
  <circle cx="1242" cy="274" r="182" fill="#A44A3F" fill-opacity="0.14"/>
  <circle cx="1315" cy="255" r="98" fill="#E2A74A" fill-opacity="0.32"/>
  <path d="M279 608C390 533 511 481 640 453C769 425 894 422 1014 443C1134 464 1243 511 1342 584" stroke="#7E5647" stroke-width="2.5" stroke-opacity="0.55"/>
  <path d="M271 667C382 613 492 576 601 556C710 536 822 533 935 547C1048 561 1168 598 1295 660" stroke="#C77E56" stroke-width="3" stroke-opacity="0.45"/>
  <defs>
    <linearGradient id="paint0_linear" x1="82" y1="74" x2="1518" y2="826" gradientUnits="userSpaceOnUse">
      <stop stop-color="#F7F0E4"/>
      <stop offset="0.48" stop-color="#EADBC7"/>
      <stop offset="1" stop-color="#D8C0AB"/>
    </linearGradient>
  </defs>
</svg>
