<svg viewBox="0 0 80 80" fill="none" xmlns="http://www.w3.org/2000/svg" width="1em" height="1em"><rect width="80" height="80" rx="20" fill="#FA322D"></rect><path fill-rule="evenodd" clip-rule="evenodd" d="M49.428 38.451h-4.17a.696.696 0 0 1-.493-.203l-3.75-3.751a.348.348 0 0 0-.493 0l-3.75 3.75a.695.695 0 0 1-.493.204h-4.17a.348.348 0 0 1-.246-.594l8.66-8.66a.348.348 0 0 1 .49 0l8.66 8.66c.22.22.064.594-.245.594m14.189.693a.004.004 0 0 0 .005-.004l-3.405-19.31c-.36-2.04-2.792-2.925-4.378-1.593l-3.596 3.017a2.687 2.687 0 0 1-2.739.43 23.103 23.103 0 0 0-8.716-1.698c-3.083 0-6.025.604-8.715 1.697a2.688 2.688 0 0 1-2.74-.43l-3.595-3.016c-1.587-1.332-4.02-.446-4.38 1.594l-3.405 19.312c0 .002.002.003.003.002.002 0 .003.001.003.003a23.289 23.289 0 0 0-.355 4.023c0 12.803 10.38 23.184 23.184 23.184 12.805 0 23.184-10.38 23.184-23.184a23.29 23.29 0 0 0-.355-4.027" fill="#fff"></path></svg>