<svg xmlns="http://www.w3.org/2000/svg" viewBox="0 0 24 24" fill="currentColor">
  <path d="M12 .5a11.5 11.5 0 0 0-3.64 22.41c.58.11.79-.25.79-.56v-2.2c-3.22.7-3.9-1.38-3.9-1.38-.53-1.33-1.29-1.69-1.29-1.69-1.05-.7.08-.69.08-.69 1.16.08 1.77 1.18 1.77 1.18 1.03 1.75 2.7 1.24 3.36.95.1-.74.4-1.24.73-1.53-2.57-.29-5.27-1.27-5.27-5.65 0-1.25.46-2.27 1.2-3.07-.12-.29-.52-1.47.11-3.06 0 0 .98-.31 3.2 1.17a11.2 11.2 0 0 1 5.82 0c2.22-1.48 3.2-1.17 3.2-1.17.63 1.59.23 2.77.11 3.06.75.8 1.2 1.82 1.2 3.07 0 4.39-2.7 5.36-5.28 5.64.41.36.78 1.08.78 2.18v3.23c0 .31.21.67.8.56A11.5 11.5 0 0 0 12 .5Z"/>
</svg>

