<svg t="1777376125735" class="icon" viewBox="0 0 1036 1024" version="1.1" xmlns="http://www.w3.org/2000/svg" p-id="2147" width="200" height="200"><path d="M370.927104 545.28c7.68 2.56 15.36 0 23.04-2.56 25.6-7.68 48.64-23.04 69.12-40.96 5.12-5.12 12.8-12.8 17.92-15.36 12.8-7.68 17.92 5.12 23.04 10.24 7.68 5.12-2.56 7.68-5.12 12.8-20.48 20.48-43.52 30.72-71.68 35.84-7.68 0-17.92 0-15.36 12.8 0 12.8 12.8 7.68 17.92 7.68 35.84 0 66.56-15.36 89.6-38.4 10.24-10.24 17.92-10.24 28.16-2.56 17.92 12.8 33.28 25.6 48.64 40.96 28.16 25.6 53.76 20.48 71.68-12.8l7.68-15.36c2.56-7.68 2.56-12.8-7.68-12.8-30.72 2.56-61.44-5.12-92.16-17.92-7.68-2.56-17.92-5.12-23.04-10.24-5.12-5.12 5.12-12.8 5.12-20.48 0-2.56 2.56-5.12 2.56-7.68 2.56-15.36-5.12-25.6-23.04-25.6h-15.36c-2.56 0-5.12 0-7.68-2.56 0-2.56 0-7.68 2.56-7.68 2.56-2.56 7.68-2.56 12.8-2.56 15.36 0 33.28 2.56 48.64 2.56 5.12 0 12.8 2.56 12.8-5.12 0-7.68-5.12-10.24-10.24-10.24s-12.8 0-17.92-2.56c-10.24 0-23.04 0-33.28-2.56-5.12 0-7.68-5.12-7.68-10.24s2.56-10.24 7.68-10.24c25.6 0 48.64-2.56 74.24 2.56 10.24 2.56 15.36 7.68 15.36 17.92v33.28c0 10.24 2.56 20.48 15.36 20.48s15.36-10.24 15.36-20.48v-40.96c0-12.8-5.12-23.04-10.24-33.28-5.12-7.68-10.24-12.8-17.92-5.12-15.36 12.8-33.28 5.12-48.64 7.68 38.4-35.84 28.16-40.96 12.8-58.88 5.12 0 10.24 2.56 12.8 2.56 5.12 0 12.8 0 15.36-7.68 2.56-7.68 2.56-12.8-5.12-17.92-2.56-10.24-10.24-10.24-17.92-10.24-7.68 2.56-17.92 2.56-25.6 5.12-51.2 7.68-99.84 10.24-151.04 10.24-5.12 0-10.24 0-12.8 5.12-2.56 5.12-2.56 10.24 2.56 12.8 5.12 5.12 10.24 2.56 15.36 2.56 30.72-2.56 58.88-5.12 89.6-5.12-7.68 10.24-12.8 17.92-10.24 30.72 2.56 10.24 12.8 17.92 20.48 25.6h-20.48c-35.84 0-35.84 0-40.96-35.84 0-5.12 0-10.24-7.68-10.24-5.12 0-12.8 2.56-15.36 7.68-5.12 7.68-5.12 17.92 0 25.6 2.56 2.56 7.68 5.12 7.68 12.8-10.24 0-23.04 2.56-33.28-2.56-15.36-5.12-20.48-5.12-25.6 12.8-5.12 20.48-5.12 43.52-5.12 64 0 7.68 0 17.92 12.8 17.92s15.36-7.68 17.92-20.48v-25.6c-2.56-15.36 7.68-20.48 20.48-25.6 17.92-5.12 35.84-2.56 56.32-2.56 5.12 0 7.68 2.56 7.68 7.68 0 5.12 0 10.24-7.68 10.24h-20.48c-12.8-2.56-20.48 2.56-28.16 12.8-2.56 5.12-5.12 7.68-2.56 12.8s7.68 2.56 12.8 2.56c12.8-2.56 25.6-7.68 38.4-5.12-15.36 33.28-38.4 56.32-71.68 69.12l-46.08 15.36c-7.68 2.56-15.36 7.68-12.8 17.92 0 10.24 7.68 12.8 15.36 15.36z m158.72-232.96h48.64c-5.12 12.8-7.68 25.6-12.8 40.96-2.56 7.68-7.68 17.92-17.92 17.92-10.24 0-23.04 2.56-17.92-15.36 2.56-10.24-2.56-23.04-5.12-33.28-2.56-5.12-2.56-10.24 5.12-10.24z m-2.56 148.48c5.12 2.56 5.12 10.24 2.56 15.36-10.24 10.24-17.92-2.56-28.16-7.68 7.68-7.68 15.36-15.36 25.6-7.68z" fill="#C01565" p-id="2148"></path><path d="M721.647104 573.44c12.8 7.68 23.04 5.12 33.28-2.56 10.24-10.24 17.92-23.04 25.6-35.84 20.48-43.52 20.48-89.6 20.48-133.12 0-7.68 0-15.36-2.56-20.48v-17.92c0-17.92 2.56-23.04 20.48-23.04 51.2-5.12 99.84-2.56 151.04 0 12.8 0 17.92 7.68 17.92 17.92 0 23.04 0 46.08 2.56 66.56 0 46.08 2.56 89.6 5.12 135.68 0 7.68 0 15.36 10.24 17.92 15.36 2.56 30.72-10.24 30.72-25.6v-23.04c-2.56-51.2-10.24-104.96-10.24-156.16 0-17.92 2.56-35.84 2.56-53.76 0-17.92-10.24-25.6-28.16-20.48-12.8 5.12-28.16 5.12-40.96 5.12-35.84-2.56-74.24-2.56-110.08 0-23.04 0-46.08 5.12-69.12-2.56-10.24-2.56-15.36 2.56-15.36 12.8v15.36c5.12 40.96 10.24 81.92 7.68 122.88-5.12 35.84-15.36 66.56-46.08 89.6-23.04 10.24-23.04 20.48-5.12 30.72z" fill="#C01665" p-id="2149"></path><path d="M890.607104 540.16c5.12-2.56 7.68-7.68 10.24-10.24 12.8-17.92 25.6-35.84 35.84-56.32 12.8 12.8 15.36 25.6 23.04 38.4 5.12 7.68 10.24 20.48 20.48 15.36 10.24-5.12 7.68-17.92 2.56-28.16-7.68-15.36-15.36-28.16-25.6-43.52-7.68-10.24-7.68-20.48-5.12-30.72 7.68-15.36 12.8-33.28 15.36-51.2 2.56-10.24 0-17.92-10.24-20.48-10.24-2.56-12.8 5.12-15.36 12.8-2.56 10.24-7.68 20.48-10.24 33.28-7.68-10.24-10.24-17.92-17.92-25.6-2.56-5.12-7.68-7.68-12.8-5.12-5.12 2.56-7.68 7.68-7.68 12.8 0 10.24 5.12 20.48 10.24 25.6 17.92 20.48 15.36 38.4 2.56 58.88-2.56 5.12-5.12 10.24-10.24 15.36-2.56-10.24-7.68-17.92-15.36-23.04-7.68-7.68-10.24-12.8-5.12-25.6 7.68-20.48 10.24-43.52 12.8-66.56 0-10.24-2.56-20.48-15.36-20.48s-12.8 7.68-12.8 17.92c-2.56 15.36-2.56 30.72-7.68 46.08-7.68-10.24-10.24-20.48-17.92-28.16-5.12-7.68-7.68-17.92-17.92-12.8-10.24 5.12-5.12 15.36-5.12 25.6 0 2.56 2.56 7.68 5.12 10.24 5.12 10.24 12.8 20.48 17.92 30.72 5.12 7.68 5.12 15.36 0 23.04-10.24 20.48-25.6 40.96-38.4 58.88-7.68 7.68-5.12 15.36 2.56 20.48 10.24 5.12 17.92 2.56 23.04-5.12 12.8-17.92 25.6-38.4 38.4-58.88 7.68 7.68 15.36 17.92 25.6 20.48-5.12 7.68-10.24 15.36-15.36 20.48-2.56 5.12-7.68 7.68-2.56 15.36 7.68 10.24 12.8 15.36 23.04 10.24z" fill="#C01565" p-id="2150"></path><path d="M20.207104 547.84c7.68 0 12.8-2.56 20.48-5.12 28.16-10.24 53.76-23.04 79.36-35.84 10.24-5.12 12.8-10.24 10.24-20.48-2.56-10.24-12.8-5.12-17.92-5.12-17.92 5.12-17.92 5.12-17.92-15.36v-7.68c0-10.24 0-17.92 15.36-17.92 10.24 0 12.8-10.24 12.8-17.92 0-7.68-5.12-10.24-12.8-7.68-12.8 2.56-15.36-5.12-15.36-15.36V384c-2.56-12.8 2.56-20.48 17.92-20.48 7.68 0 17.92-2.56 15.36-15.36 0-12.8-7.68-15.36-17.92-15.36-15.36 0-33.28 2.56-48.64-2.56-17.92-5.12-35.84 7.68-38.4 25.6-2.56 12.8 2.56 17.92 15.36 15.36 25.6-2.56 25.6-2.56 25.6 23.04v12.8c0 7.68-5.12 10.24-10.24 5.12-7.68-5.12-12.8-5.12-17.92 2.56-7.68 10.24-12.8 20.48-10.24 30.72 5.12 10.24 12.8 2.56 20.48 0 12.8-2.56 17.92 0 15.36 12.8v7.68c0 30.72 0 28.16-30.72 28.16-15.36 0-17.92 12.8-25.6 23.04-5.12 7.68-7.68 17.92 0 25.6 5.12 5.12 10.24 5.12 15.36 5.12z" fill="#C01665" p-id="2151"></path><path d="M104.687104 396.8c7.68 10.24 17.92 2.56 25.6-2.56 12.8-7.68 23.04-15.36 30.72-25.6 30.72-28.16 40.96-28.16 69.12 2.56l7.68 7.68c12.8 12.8 28.16 28.16 43.52 40.96 17.92 12.8 30.72 10.24 40.96-10.24 2.56-5.12 5.12-10.24 5.12-15.36 5.12-17.92 0-25.6-17.92-30.72-25.6-7.68-51.2-15.36-76.8-28.16-12.8-7.68-33.28-12.8-23.04-33.28 0-10.24-2.56-17.92-10.24-20.48-7.68-2.56-12.8 5.12-15.36 12.8-7.68 15.36-15.36 28.16-25.6 40.96-12.8 15.36-28.16 28.16-43.52 38.4-7.68 5.12-17.92 12.8-10.24 23.04z" fill="#C01666" p-id="2152"></path><path d="M114.927104 578.56c20.48 0 38.4-7.68 53.76-15.36 35.84-20.48 71.68-46.08 104.96-74.24 12.8-10.24 15.36-23.04 7.68-38.4-2.56-5.12-5.12-7.68-10.24-7.68s-7.68 2.56-10.24 7.68c-5.12 10.24-10.24 17.92-17.92 23.04-43.52 35.84-87.04 64-140.8 76.8-5.12 2.56-12.8 2.56-12.8 10.24 0 7.68 5.12 12.8 12.8 15.36 5.12 2.56 10.24 2.56 12.8 2.56z" fill="#C01665" p-id="2153"></path><path d="M962.287104 729.6c0-17.92 0-35.84 2.56-53.76 5.12-15.36 15.36-25.6 30.72-23.04 15.36 2.56 17.92 12.8 15.36 25.6 0 17.92-2.56 35.84-2.56 53.76 0 5.12 0 10.24 7.68 10.24 5.12 0 10.24 2.56 10.24-7.68 0-23.04 2.56-46.08 2.56-66.56 0-12.8-7.68-23.04-20.48-25.6-17.92-5.12-35.84 0-46.08 15.36-17.92-23.04-40.96-23.04-64-2.56-2.56-5.12 2.56-12.8-10.24-12.8s-7.68 7.68-7.68 15.36c-2.56 25.6-2.56 48.64-2.56 74.24 0 5.12-2.56 10.24 7.68 10.24 7.68 0 10.24-2.56 10.24-10.24v-33.28c0-10.24 0-23.04 7.68-33.28s17.92-15.36 28.16-10.24c12.8 2.56 12.8 12.8 12.8 23.04 0 17.92-2.56 33.28-2.56 51.2 0 5.12-5.12 12.8 7.68 12.8s12.8-5.12 12.8-12.8z" fill="#39383A" p-id="2154"></path><path d="M184.047104 729.6c0 5.12-5.12 12.8 5.12 12.8s12.8-2.56 12.8-12.8c0-15.36 0-30.72 2.56-46.08 0-33.28-10.24-43.52-40.96-43.52-15.36 0-28.16 5.12-40.96 20.48 0-17.92 2.56-30.72 2.56-43.52 0-5.12 0-10.24-7.68-7.68-5.12 0-10.24 0-10.24 7.68 0 40.96-2.56 79.36-5.12 120.32 0 2.56 2.56 5.12 7.68 5.12 7.68 0 10.24-2.56 10.24-10.24 0-17.92 0-38.4 5.12-56.32 5.12-17.92 23.04-25.6 40.96-20.48 15.36 2.56 20.48 10.24 17.92 30.72v43.52z" fill="#3A393B" p-id="2155"></path><path d="M808.687104 640c-33.28 0-53.76 20.48-53.76 51.2s20.48 48.64 51.2 48.64c33.28 0 51.2-20.48 51.2-53.76 2.56-28.16-17.92-46.08-48.64-46.08z m-2.56 89.6c-20.48 0-33.28-15.36-33.28-35.84 0-25.6 12.8-40.96 35.84-40.96 20.48 0 33.28 12.8 33.28 35.84 0 25.6-15.36 40.96-35.84 40.96zM417.007104 686.08c0 15.36-2.56 30.72-2.56 46.08 0 5.12 0 7.68 7.68 7.68 5.12 0 10.24 2.56 10.24-7.68 0-23.04 2.56-43.52 2.56-66.56 0-15.36-7.68-23.04-23.04-28.16-20.48-5.12-38.4-2.56-53.76 15.36 0-7.68 2.56-15.36-10.24-15.36s-7.68 7.68-7.68 12.8c-2.56 25.6-2.56 48.64-2.56 74.24 0 5.12-5.12 12.8 7.68 12.8 10.24 0 10.24-2.56 10.24-12.8 0-17.92 0-33.28 2.56-51.2 5.12-17.92 20.48-28.16 40.96-25.6 15.36 7.68 20.48 17.92 17.92 38.4z" fill="#39393B" p-id="2156"></path><path d="M545.007104 663.04c0-10.24-2.56-15.36-12.8-20.48-20.48-7.68-40.96-5.12-61.44 0-5.12 0-5.12 5.12-5.12 10.24 2.56 5.12 5.12 2.56 7.68 0 7.68-2.56 15.36-5.12 25.6-5.12s23.04-2.56 25.6 12.8c2.56 15.36-12.8 15.36-23.04 17.92-12.8 5.12-28.16 5.12-40.96 12.8-15.36 10.24-15.36 30.72-2.56 40.96 12.8 10.24 30.72 7.68 46.08 5.12 5.12 0 5.12-5.12 5.12-7.68 0-5.12-5.12-2.56-7.68-2.56H488.687104c-10.24 0-20.48 0-23.04-12.8-2.56-12.8 5.12-17.92 15.36-20.48 12.8-5.12 25.6-7.68 40.96-12.8 0 15.36 0 33.28-2.56 48.64 0 5.12 0 7.68 7.68 7.68 5.12 0 10.24 2.56 10.24-7.68 5.12-17.92 7.68-40.96 7.68-66.56z" fill="#C11363" p-id="2157"></path><path d="M306.927104 724.48c-12.8 2.56-23.04 5.12-35.84 5.12-17.92-2.56-30.72-15.36-30.72-33.28 0-7.68 2.56-10.24 7.68-10.24h48.64c20.48 0 23.04-5.12 15.36-25.6-2.56-7.68-10.24-15.36-17.92-17.92-20.48-7.68-46.08-2.56-58.88 10.24-15.36 17.92-17.92 38.4-10.24 61.44 7.68 23.04 28.16 28.16 48.64 28.16 7.68 0 15.36-2.56 23.04-2.56 7.68 0 12.8-5.12 10.24-15.36z m-58.88-61.44c7.68-10.24 17.92-12.8 30.72-12.8 10.24 0 15.36 5.12 20.48 15.36 2.56 7.68 2.56 12.8-7.68 12.8H255.727104c-5.12 0-10.24 2.56-10.24-2.56-5.12-5.12 0-10.24 2.56-12.8z" fill="#3A3A3B" p-id="2158"></path><path d="M17.647104 742.4h53.76c2.56 0 7.68 0 7.68-7.68s-5.12-5.12-10.24-5.12H22.767104c5.12-7.68 10.24-12.8 15.36-17.92 12.8-17.92 28.16-33.28 40.96-51.2 5.12-5.12 5.12-12.8 5.12-17.92-2.56-7.68-10.24-2.56-15.36-2.56h-51.2c-5.12 0-7.68 0-7.68 7.68s5.12 5.12 7.68 5.12h46.08c-20.48 23.04-38.4 46.08-58.88 69.12-2.56 5.12-2.56 10.24-2.56 17.92 2.56 5.12 10.24 2.56 15.36 2.56z" fill="#3A3A3C" p-id="2159"></path><path d="M158.447104 496.64c2.56 0 2.56 0 5.12-2.56 33.28-10.24 58.88-30.72 76.8-58.88 2.56-5.12 5.12-7.68 5.12-12.8 0-7.68-2.56-12.8-7.68-15.36-5.12-2.56-10.24 2.56-12.8 5.12-10.24 12.8-23.04 25.6-35.84 38.4-10.24 10.24-23.04 17.92-35.84 25.6-5.12 2.56-7.68 7.68-5.12 15.36 0 5.12 5.12 5.12 10.24 5.12z" fill="#C01565" p-id="2160"></path><path d="M652.527104 693.76c0 33.28 17.92 48.64 53.76 48.64h10.24c7.68 0 15.36-2.56 12.8-10.24-2.56-10.24-10.24-2.56-12.8-2.56-15.36 2.56-30.72 0-38.4-12.8-10.24-15.36-7.68-30.72 0-46.08 7.68-15.36 20.48-17.92 38.4-17.92 5.12 0 7.68 2.56 12.8 2.56 2.56 0 7.68 2.56 7.68-2.56s0-10.24-5.12-10.24c-7.68 0-15.36-2.56-23.04-2.56-38.4 0-56.32 17.92-56.32 53.76z" fill="#3A3A3C" p-id="2161"></path><path d="M209.647104 401.92c5.12-2.56 7.68-10.24 7.68-15.36 0-5.12 0-10.24-7.68-12.8-5.12-2.56-12.8 0-15.36 5.12-17.92 23.04-38.4 40.96-61.44 56.32-2.56 0-5.12 2.56-5.12 7.68 2.56 5.12 5.12 5.12 10.24 2.56 2.56 0 7.68-2.56 10.24-2.56 23.04-12.8 40.96-25.6 61.44-40.96z" fill="#C11666" p-id="2162"></path><path d="M588.527104 691.2c0-12.8 2.56-28.16 2.56-40.96 0-5.12 0-10.24-7.68-10.24s-10.24 2.56-10.24 10.24c0 28.16-2.56 56.32-2.56 81.92 0 5.12 0 10.24 7.68 10.24s10.24 0 10.24-10.24V691.2z" fill="#C21B68" p-id="2163"></path><path d="M621.807104 724.48c-7.68-2.56-10.24 2.56-10.24 10.24 0 7.68 2.56 7.68 10.24 7.68 7.68 0 10.24-2.56 10.24-10.24 2.56-10.24-2.56-7.68-10.24-7.68z" fill="#434343" p-id="2164"></path><path d="M583.407104 606.72c-5.12 0-10.24 0-10.24 7.68s5.12 7.68 10.24 7.68 7.68 0 7.68-7.68c2.56-7.68-2.56-7.68-7.68-7.68z" fill="#C11765" p-id="2165"></path></svg>