<svg width="1600" height="900" viewBox="0 0 1600 900" fill="none" xmlns="http://www.w3.org/2000/svg">
  <rect width="1600" height="900" fill="#0E1A2B"/>
  <rect x="78" y="72" width="1444" height="756" rx="36" fill="url(#paint0_linear)"/>
  <circle cx="1260" cy="234" r="174" fill="#8DD7C4" fill-opacity="0.18"/>
  <circle cx="1358" cy="210" r="92" fill="#F4C76A" fill-opacity="0.35"/>
  <path d="M179 671C284 557 412 471 561 413C710 355 845 328 964 332C1083 336 1198 377 1308 455" stroke="#DCE8F7" stroke-opacity="0.46" stroke-width="3"/>
  <path d="M178 707C275 624 392 565 531 529C670 493 802 484 928 503C1054 522 1178 577 1298 668" stroke="#F5D48A" stroke-opacity="0.55" stroke-width="2.5"/>
  <rect x="188" y="186" width="414" height="126" rx="18" fill="#0F2338" fill-opacity="0.78" stroke="#A6BCD5" stroke-opacity="0.22"/>
  <text x="220" y="236" fill="#F6F1E8" font-size="52" font-family="'Times New Roman', serif">Blog Core</text>
  <text x="220" y="284" fill="#C9D5E4" font-size="24" font-family="'Times New Roman', serif">content model, tags, routes, assets</text>
  <defs>
    <linearGradient id="paint0_linear" x1="121" y1="112" x2="1433" y2="791" gradientUnits="userSpaceOnUse">
      <stop stop-color="#16304A"/>
      <stop offset="0.5" stop-color="#14253B"/>
      <stop offset="1" stop-color="#231A26"/>
    </linearGradient>
  </defs>
</svg>
